<svg width="15" height="11" viewBox="0 0 15 11" fill="none" xmlns="http://www.w3.org/2000/svg">
<path d="M3.8826 8.6019H1.39425L0 6.58175V2.02014L1.39425 0H3.8826L5.13162 1.79858L4.08593 2.7109L3.35008 1.65521H1.92678L1.22965 2.65877V5.95616L1.92678 6.94668H3.35008L4.0472 5.94313L5.10257 6.82938L3.8826 8.6019Z" fill="white"/>
<path d="M7.19985 8.6019L5.8056 6.58175V2.02014L7.19985 0H9.44614L10.8404 2.02014V6.58175L9.44614 8.6019H7.19985ZM7.03525 2.65877V5.94313L7.73238 6.94668H8.91362L9.61074 5.94313V2.65877L8.91362 1.65521H7.73238L7.03525 2.65877Z" fill="white"/>
<path d="M15 11H12.1921V8.99289L12.6956 8.34123H14.0608L14.177 8.22393V7.70261L14.0608 7.54621H13.1313L13.0151 7.70261V7.96327H12.1921V7.22038L12.8021 6.43839H14.39L15 7.22038V8.73223L14.4868 9.31872H13.1216L13.0151 9.47512V9.89218H15V11Z" fill="white"/>
</svg>
