<svg width="18" height="15" viewBox="0 0 18 15" fill="none" xmlns="http://www.w3.org/2000/svg">
<path d="M16.211 0L16.21 14.4132C16.4716 14.8378 16.7422 15.0011 16.9692 15C17.1944 14.9989 17.4622 14.8337 17.7187 14.4218L17.0182 7.06012L17.01 6.97046L17.0661 6.89899C17.8711 5.88015 18.1524 4.11994 17.9227 2.63111C17.8079 1.88666 17.5676 1.21286 17.231 0.736537C16.9488 0.337087 16.6121 0.082275 16.2111 0H16.211ZM2.054 0.000150061L2.05339 2.51741L1.57589 2.51681V0.000299978H1.03204L1.03211 2.51692H0.553923V0.000299978H4.5754e-09V3.87135C-3.80135e-05 4.29949 0.236853 4.5369 0.60981 4.68367L0.764163 4.7445L0.760741 4.90837C0.684705 8.07975 0.609544 11.2511 0.534078 14.4224C0.794121 14.8421 1.06124 15.001 1.28364 15C1.50605 14.9989 1.77293 14.8359 2.02967 14.4213C1.94166 11.2508 1.85365 8.0802 1.76579 4.90965L1.76122 4.74465L1.91607 4.68442C2.30857 4.53045 2.56386 4.26915 2.56386 3.87157V0.000150061H2.054ZM9.00321 1.4625C7.37984 1.4625 5.82297 2.09859 4.67507 3.23084C3.52718 4.36309 2.8823 5.89875 2.8823 7.5C2.8823 9.10124 3.52718 10.6369 4.67507 11.7692C5.82297 12.9014 7.37984 13.5375 9.00321 13.5375C10.6266 13.5375 12.1835 12.9014 13.3313 11.7692C14.4792 10.6369 15.1241 9.10124 15.1241 7.5C15.1241 5.89875 14.4792 4.36309 13.3313 3.23084C12.1835 2.09859 10.6266 1.4625 9.00321 1.4625Z" fill="white"/>
</svg>
