<svg width="10" height="15" viewBox="0 0 10 15" fill="none" xmlns="http://www.w3.org/2000/svg">
<path d="M10 1.49939V1.52177C10 2.34979 8.27097 3.02404 5 3.02404C1.56452 3.02404 0 2.34979 0 1.52177V1.48341C0 1.00386 0.53871 0.623415 1.60323 0.354867C2.5129 0.124683 3.71935 0 5 0C6.27742 0 7.48387 0.124683 8.39677 0.354867C9.46129 0.623415 10 1.00386 10 1.48341V1.49939ZM4.29032 1.48341C4.29032 1.34913 3.86452 1.24363 3.34194 1.24363C2.81613 1.24363 2.39032 1.34913 2.39032 1.48341C2.39032 1.61448 2.81613 1.72318 3.34194 1.72318C3.86452 1.72318 4.29032 1.61448 4.29032 1.48341ZM9.69677 4.61295V2.68836C9.41613 2.89936 8.99032 3.07839 8.41935 3.22226C7.5 3.45564 6.2871 3.58032 5 3.58032C3.7129 3.58032 2.5 3.45244 1.58065 3.22226C1.00968 3.07839 0.583871 2.90256 0.303226 2.68836V4.61295C0.1 4.78239 0 4.97101 0 5.17882V5.21399C0 6.04201 1.56452 6.71338 5 6.71338C8.27097 6.71338 10 6.04201 10 5.21399V5.17882C10 4.97101 9.9 4.78239 9.69677 4.61295ZM9.69677 8.73388V6.38409C9.41613 6.59509 8.99032 6.77412 8.41935 6.91799C7.5 7.14817 6.2871 7.27605 5 7.27605C3.7129 7.27605 2.5 7.14817 1.58065 6.91799C1.00968 6.77412 0.583871 6.59509 0.303226 6.38409V8.73388C0.1 8.90332 0 9.09194 0 9.29975V9.32852C0 10.1565 1.56452 10.8279 5 10.8279C8.27097 10.8279 10 10.1565 10 9.32852V9.29975C10 9.08875 9.9 8.90013 9.69677 8.73388ZM9.98387 13.3823C9.94839 13.2257 9.85484 13.0818 9.69677 12.9507V10.505C9.41613 10.716 8.99032 10.8951 8.41935 11.0389C7.5 11.2691 6.2871 11.397 5 11.397C3.7129 11.397 2.5 11.2691 1.58065 11.0389C1.00968 10.8951 0.583871 10.716 0.303226 10.505V12.9507C0.145161 13.0818 0.0516129 13.2257 0.016129 13.3823C0.00645161 13.4207 0 13.4622 0 13.5006V13.5166C0 13.6988 0.0741936 13.8651 0.225806 14.0153C0.774194 14.5908 2.31613 15 5 15C6.94194 15 8.34194 14.7634 9.15806 14.3958C9.71613 14.156 10 13.8651 10 13.5166V13.5006C10 13.4622 9.99355 13.4207 9.98387 13.3823Z" fill="white"/>
</svg>
