<svg width="11" height="11" viewBox="0 0 11 11" fill="none" xmlns="http://www.w3.org/2000/svg">
<path d="M1.66805 8.6019L0 6.58175V2.02014L1.66805 0H4.35548L6.02353 2.02014V6.58175L4.35548 8.6019H1.66805ZM1.47113 2.65877V5.94313L2.30516 6.94668H3.71837L4.5524 5.94313V2.65877L3.71837 1.65521H2.30516L1.47113 2.65877Z" fill="white"/>
<path d="M11 11H7.64072V8.99289L8.24308 8.34123H9.87638L10.0154 8.22393V7.70261L9.87638 7.54621H8.76434L8.62534 7.70261V7.96327H7.64072V7.22038L8.3705 6.43839H10.2702L11 7.22038V8.73223L10.3861 9.31872H8.75276L8.62534 9.47512V9.89218H11V11Z" fill="white"/>
</svg>
