<svg width="11" height="15" viewBox="0 0 11 15" fill="none" xmlns="http://www.w3.org/2000/svg">
<path d="M3.17778 0V1.95312H0V3.125H11V1.95312H7.82222V0H3.17778ZM3.91111 0.703125H7.08889V1.95312H3.91111V0.703125ZM0.692511 3.82812L1.91905 15H9.08103L10.3075 3.82812H0.692511ZM3.23221 4.35078L3.25828 4.70156L3.91013 13.4516L3.93633 13.8022L3.20479 13.8523L3.17871 13.5015L2.52686 4.75152L2.50067 4.4009L3.23221 4.35078ZM7.76779 4.35078L8.49929 4.40094L8.4731 4.7516L7.82124 13.5016L7.79517 13.8524L7.06363 13.8022L7.08983 13.4516L7.74168 4.70156L7.76775 4.35078H7.76779ZM5.13333 4.375H5.86667V13.8281H5.13333V4.375Z" fill="white"/>
</svg>
