<svg width="1320" height="282" viewBox="0 0 1320 282" fill="none" xmlns="http://www.w3.org/2000/svg">
<path d="M1102 0L1236.58 159.563H1237.36V0H1320V282H1237.36L1102.78 122.437H1102V282H1019.36V0H1102Z" fill="white"/>
<path d="M0 0H85.3208L178.112 179.706H178.898L271.69 0H357.011V282H274.442V154.429H273.656L203.669 282H153.342L83.3549 154.429H82.5685V282H0V0Z" fill="white"/>
<path fill-rule="evenodd" clip-rule="evenodd" d="M368.754 138.823C368.754 226.729 427.926 280.32 528.326 280.32L847.662 282C948.062 282 1007.62 230.089 1007.62 142.183C1007.62 53.8982 948.248 1.36381 847.853 0.307552C782.081 -0.384435 688.09 0.307612 688.09 0.307612H528.326C427.926 0.304891 368.754 50.5385 368.754 138.823ZM528.47 216.2C481.132 216.2 453.144 186.565 453.144 138.823C453.144 90.7023 481.133 65.8001 528.47 65.8001H847.9C895.619 65.8001 923.63 94.0621 923.63 142.183C923.63 189.925 895.619 216.2 847.9 216.2H528.47Z" fill="white"/>
<path d="M735.16 65.8001H838.505L641.21 216.2L537.865 216.164L735.16 65.8001Z" fill="white"/>
</svg>
