<svg width="562" height="120" viewBox="0 0 562 120" fill="none" xmlns="http://www.w3.org/2000/svg">
<path d="M469.183 0L526.482 67.8991H526.817V0H562V120H526.817L469.518 52.1008H469.183V120H434V0H469.183Z" fill="white"/>
<path d="M0 0H36.326L75.8326 76.4706H76.1674L115.674 0H152V120H116.846V65.7143H116.511L86.7136 120H65.2863L35.489 65.7143H35.1542V120H0V0Z" fill="white"/>
<path fill-rule="evenodd" clip-rule="evenodd" d="M157 59.0737C157 96.4804 182.193 119.285 224.939 119.285L360.898 120C403.645 120 429 97.9101 429 60.5034C429 22.9354 403.724 0.580344 360.98 0.130873C332.977 -0.163589 292.959 0.130899 292.959 0.130899H224.939C182.193 0.129741 157 21.5057 157 59.0737ZM225 92C204.846 92 192.93 79.3895 192.93 59.0737C192.93 38.5967 204.846 28 225 28H361C381.317 28 393.243 40.0264 393.243 60.5034C393.243 80.8191 381.317 92 361 92H225Z" fill="white"/>
<path d="M313 28H357L273 92L229 91.9848L313 28Z" fill="white"/>
</svg>
