<svg width="30" height="196" viewBox="0 0 30 196" fill="none" xmlns="http://www.w3.org/2000/svg">
<rect width="30" height="30" fill="#464646"/>
<path d="M19.72 16.732L14.344 22.46H13.288V21.372L17.736 16.828V16.668H5V15.228H17.736V15.036L13.288 10.492V9.436H14.344L19.72 15.164V16.732ZM22.888 9.436V22.46H21.576V9.436H22.888Z" fill="#A3A3A3"/>
<rect width="30" height="166" transform="translate(0 30)" fill="black" fill-opacity="0.8"/>
<path d="M20 154.25L20 155.45L10.1 155.45L10.1 148.55L20 148.55L20 149.75L11.27 149.75L11.27 154.25L20 154.25ZM20 140.561L20 143.951L18.2 145.706L14.3 145.706L12.5 143.951L12.5 140.561L14.3 138.806L18.2 138.806L20 140.561ZM17.705 144.506L18.8 143.426L18.8 141.086L17.705 140.006L14.795 140.006L13.7 141.086L13.7 143.426L14.795 144.506L17.705 144.506ZM20 130.427L20 134.207L18.2 135.962L14.3 135.962L12.5 134.207L12.5 130.427L13.97 128.987L14.795 129.872L13.7 130.937L13.7 133.682L14.795 134.762L17.705 134.762L18.8 133.682L18.8 130.952L17.705 129.872L18.515 128.987L20 130.427ZM20 122.153L20 123.383L13.655 123.353L13.655 126.518L12.5 126.518L12.5 119.018L13.655 119.018L13.655 122.183L20 122.153ZM23.15 115.093L23.15 116.323L12.5 116.323L12.5 115.093L13.34 115.093L13.34 115.033L12.5 114.058L12.5 111.328L14.3 109.573L18.2 109.573L20 111.328L20 114.178L19.265 115.033L19.265 115.093L23.15 115.093ZM17.78 115.123L18.8 113.743L18.8 111.853L17.705 110.773L14.795 110.773L13.7 111.853L13.7 113.698L14.72 115.123L17.78 115.123ZM20 101.584L20 104.974L18.2 106.729L14.3 106.729L12.5 104.974L12.5 101.584L14.3 99.8293L18.2 99.8293L20 101.584ZM17.705 105.529L18.8 104.449L18.8 102.109L17.705 101.029L14.795 101.029L13.7 102.109L13.7 104.449L14.795 105.529L17.705 105.529ZM20 95.7252L20 96.8352L12.5 96.8352L12.5 95.6352L17.72 95.6352L17.72 95.5152L12.5 91.5552L12.5 90.2352L20 90.2352L20 91.4352L14.42 91.4352L14.42 91.5552L20 95.7252ZM20 83.176L20 84.406L13.655 84.376L13.655 87.541L12.5 87.541L12.5 80.041L13.655 80.041L13.655 83.206L20 83.176ZM20 72.1419L20 77.3469L12.5 77.3469L12.5 76.1469L15.05 76.1469L15.05 72.1569L16.145 70.4469L18.785 70.4469L20 72.1419ZM16.25 76.1469L18.8 76.1469L18.8 72.5169L18.17 71.6469L16.79 71.6469L16.25 72.5169L16.25 76.1469Z" fill="#A3A3A3"/>
</svg>
